<svg width="129" height="24" viewBox="0 0 129 24" fill="none" xmlns="http://www.w3.org/2000/svg">
<path d="M16.8906 20.2905C10.4673 22.2884 0.0927203 20.2465 0.000572001 11.3487C-0.0915763 2.45068 10.9806 7.75111 10.9806 7.75111L16.8906 20.2905Z" fill="#FFC250"/>
<path d="M3.12363 6.35634C7.60659 5.58791 11.0113 11.5303 14.7782 17.7291C18.5452 23.9278 28.3542 26.3848 34.6218 21.172C40.8893 15.9591 43.5419 6.82937 35.8464 1.38363C28.1509 -4.06212 23.3471 8.30144 16.7221 8.64128C10.0972 8.98113 10.0488 4.055 3.12363 6.35634Z" fill="#FFD064"/>
<ellipse cx="35.1972" cy="11.6257" rx="1.96745" ry="1.96809" fill="#FFE19D"/>
<circle cx="31.4262" cy="13.1012" r="1.47559" fill="#FFE19D"/>
<circle cx="34.0495" cy="15.0693" r="1.14768" fill="#FFE19D"/>
<path d="M50.6123 19.9744V3.17436H57.3563C59.1003 3.17436 60.4283 3.58236 61.3403 4.39836C62.2683 5.19836 62.7323 6.23036 62.7323 7.49436C62.7323 8.55036 62.4443 9.39836 61.8683 10.0384C61.3083 10.6624 60.6203 11.0864 59.8043 11.3104C60.7643 11.5024 61.5563 11.9824 62.1803 12.7504C62.8043 13.5024 63.1163 14.3824 63.1163 15.3904C63.1163 16.7184 62.6363 17.8144 61.6763 18.6784C60.7163 19.5424 59.3563 19.9744 57.5963 19.9744H50.6123ZM53.6843 10.2304H56.9003C57.7643 10.2304 58.4283 10.0304 58.8923 9.63036C59.3563 9.23036 59.5883 8.66236 59.5883 7.92636C59.5883 7.22236 59.3563 6.67036 58.8923 6.27036C58.4443 5.85436 57.7643 5.64637 56.8523 5.64637H53.6843V10.2304ZM53.6843 17.4784H57.1163C58.0283 17.4784 58.7323 17.2704 59.2283 16.8544C59.7403 16.4224 59.9963 15.8224 59.9963 15.0544C59.9963 14.2704 59.7323 13.6544 59.2043 13.2064C58.6763 12.7584 57.9643 12.5344 57.0683 12.5344H53.6843V17.4784ZM68.825 20.2624C67.801 20.2624 66.961 20.1024 66.305 19.7824C65.649 19.4464 65.161 19.0064 64.841 18.4624C64.521 17.9184 64.361 17.3184 64.361 16.6624C64.361 15.5584 64.793 14.6624 65.657 13.9744C66.521 13.2864 67.817 12.9424 69.545 12.9424H72.569V12.6544C72.569 11.8384 72.337 11.2384 71.873 10.8544C71.409 10.4704 70.833 10.2784 70.145 10.2784C69.521 10.2784 68.977 10.4304 68.513 10.7344C68.049 11.0224 67.761 11.4544 67.649 12.0304H64.649C64.729 11.1664 65.017 10.4144 65.513 9.77436C66.025 9.13436 66.681 8.64636 67.481 8.31036C68.281 7.95836 69.177 7.78236 70.169 7.78236C71.865 7.78236 73.201 8.20636 74.177 9.05436C75.153 9.90236 75.641 11.1024 75.641 12.6544V19.9744H73.025L72.737 18.0544C72.385 18.6944 71.889 19.2224 71.249 19.6384C70.625 20.0544 69.817 20.2624 68.825 20.2624ZM69.521 17.8624C70.401 17.8624 71.081 17.5744 71.561 16.9984C72.057 16.4224 72.369 15.7104 72.497 14.8624H69.881C69.065 14.8624 68.481 15.0144 68.129 15.3184C67.777 15.6064 67.601 15.9664 67.601 16.3984C67.601 16.8624 67.777 17.2224 68.129 17.4784C68.481 17.7344 68.945 17.8624 69.521 17.8624ZM82.7525 19.9744C81.5045 19.9744 80.5045 19.6704 79.7525 19.0624C79.0005 18.4544 78.6245 17.3744 78.6245 15.8224V10.6384H76.5845V8.07036H78.6245L78.9845 4.87837H81.6965V8.07036H84.9125V10.6384H81.6965V15.8464C81.6965 16.4224 81.8165 16.8224 82.0565 17.0464C82.3125 17.2544 82.7445 17.3584 83.3525 17.3584H84.8405V19.9744H82.7525ZM90.694 20.2624C89.67 20.2624 88.83 20.1024 88.174 19.7824C87.518 19.4464 87.03 19.0064 86.71 18.4624C86.39 17.9184 86.23 17.3184 86.23 16.6624C86.23 15.5584 86.662 14.6624 87.526 13.9744C88.39 13.2864 89.686 12.9424 91.414 12.9424H94.438V12.6544C94.438 11.8384 94.206 11.2384 93.742 10.8544C93.278 10.4704 92.702 10.2784 92.014 10.2784C91.39 10.2784 90.846 10.4304 90.382 10.7344C89.918 11.0224 89.63 11.4544 89.518 12.0304H86.518C86.598 11.1664 86.886 10.4144 87.382 9.77436C87.894 9.13436 88.55 8.64636 89.35 8.31036C90.15 7.95836 91.046 7.78236 92.038 7.78236C93.734 7.78236 95.07 8.20636 96.046 9.05436C97.022 9.90236 97.51 11.1024 97.51 12.6544V19.9744H94.894L94.606 18.0544C94.254 18.6944 93.758 19.2224 93.118 19.6384C92.494 20.0544 91.686 20.2624 90.694 20.2624ZM91.39 17.8624C92.27 17.8624 92.95 17.5744 93.43 16.9984C93.926 16.4224 94.238 15.7104 94.366 14.8624H91.75C90.934 14.8624 90.35 15.0144 89.998 15.3184C89.646 15.6064 89.47 15.9664 89.47 16.3984C89.47 16.8624 89.646 17.2224 89.998 17.4784C90.35 17.7344 90.814 17.8624 91.39 17.8624ZM106.538 20.2624C105.642 20.2624 104.858 20.0944 104.186 19.7584C103.514 19.4224 102.97 18.9504 102.554 18.3424L102.218 19.9744H99.4816V2.69436H102.554V9.77436C102.938 9.24636 103.442 8.78236 104.066 8.38236C104.706 7.98236 105.53 7.78236 106.538 7.78236C107.658 7.78236 108.658 8.05436 109.538 8.59836C110.418 9.14236 111.114 9.88636 111.626 10.8304C112.138 11.7744 112.394 12.8464 112.394 14.0464C112.394 15.2464 112.138 16.3184 111.626 17.2624C111.114 18.1904 110.418 18.9264 109.538 19.4704C108.658 19.9984 107.658 20.2624 106.538 20.2624ZM105.89 17.5744C106.866 17.5744 107.674 17.2464 108.314 16.5904C108.954 15.9344 109.274 15.0864 109.274 14.0464C109.274 13.0064 108.954 12.1504 108.314 11.4784C107.674 10.8064 106.866 10.4704 105.89 10.4704C104.898 10.4704 104.082 10.8064 103.442 11.4784C102.818 12.1344 102.506 12.9824 102.506 14.0224C102.506 15.0624 102.818 15.9184 103.442 16.5904C104.082 17.2464 104.898 17.5744 105.89 17.5744ZM115.834 6.22236C115.274 6.22236 114.81 6.05436 114.442 5.71836C114.09 5.38236 113.914 4.95836 113.914 4.44636C113.914 3.93436 114.09 3.51836 114.442 3.19836C114.81 2.86236 115.274 2.69436 115.834 2.69436C116.394 2.69436 116.85 2.86236 117.202 3.19836C117.57 3.51836 117.754 3.93436 117.754 4.44636C117.754 4.95836 117.57 5.38236 117.202 5.71836C116.85 6.05436 116.394 6.22236 115.834 6.22236ZM114.298 19.9744V8.07036H117.37V19.9744H114.298ZM124.92 19.9744C123.672 19.9744 122.672 19.6704 121.92 19.0624C121.168 18.4544 120.792 17.3744 120.792 15.8224V10.6384H118.752V8.07036H120.792L121.152 4.87837H123.864V8.07036H127.08V10.6384H123.864V15.8464C123.864 16.4224 123.984 16.8224 124.224 17.0464C124.48 17.2544 124.912 17.3584 125.52 17.3584H127.008V19.9744H124.92Z" fill="#F7931A"/>
</svg>
